<svg id="broken_glass" xmlns="http://www.w3.org/2000/svg" viewBox="0 0 1398.92 786"><mask id="backup"><polygon id="polygon" fill="#fff" points="341.42 689.61 426.17 748 55.13 749.88 341.42 689.61"/><polygon id="polygon" fill="#fff" points="0 667 335.52 538.4 218.74 692.84 0 667"/><polygon id="polygon" fill="#fff" points="336.43 638.81 359.48 505.36 544.06 786 336.43 638.81"/><polygon id="polygon" fill="#fff" points="582 552 391 441 679 385 582 552"/><polygon id="polygon" fill="#fff" points="1074 646 1248.81 426.1 1398.92 545.65 1074 646"/><polygon id="polygon" fill="#fff" points="964 265 1302 0 1288.92 164.65 964 265"/><polygon id="polygon" fill="#fff" points="908 536 1226.72 416.93 950.12 711.87 908 536"/><polygon id="polygon" fill="#fff" points="904 539 944 712 569 666 904 539"/><polygon id="polygon" fill="#fff" points="673 346 1231.32 406.03 952 515 673 346"/><polygon id="polygon" fill="#fff" points="685 341 1284.86 206.56 1272.7 406.92 685 341"/><polygon id="polygon" fill="#fff" points="701 369 946 517 539.41 673.75 701 369"/></mask></svg>
