<svg xmlns="http://www.w3.org/2000/svg" viewBox="0 0 42.57 42.37" id="nav_compass"><defs><style>.cps-1{fill:#2374a6}.cps-2{fill:#25516d}.cps-3{fill:#87a767}</style></defs><g id="Calque_2" data-name="Calque 2"><g id="Calque_1-2" data-name="Calque 1"><path class="cps-1" d="M7.08 6.77 17.26 14l-.2 2.74-2.74.21ZM7.12 35.12l7.22-10.18h2.93v2.94ZM35.47 34.87l-10.18-7-.2-3.32 3.13.39ZM35.23 6.72l-7 10.18-2.74-.2-.22-2.7Z"/><path class="cps-2" d="m21.24 0 3.16 18.57-3.12 2.72-3.14-2.71Z"/><path class="cps-2" d="M21.31 42.37 18.15 23.8l3.13-2.72 3.13 2.71Z"/><path class="cps-3" d="M42.57 21.1 24 24.26l-2.71-3.12L24 18ZM0 21.24l18.57-3.16 2.72 3.13-2.71 3.13Z"/></g></g></svg>