<svg id="digital_nomad" xmlns="http://www.w3.org/2000/svg" xmlns:xlink="http://www.w3.org/1999/xlink" viewBox="0 0 1920 1440"><defs><style>.cls-1{fill:none;}.cls-2{fill:#4a5c39;}.cls-3{clip-path:url(#clip-path);}</style><clipPath id="clip-path"><path class="cls-1" d="M482.47,1061.16l115.06,79.26L93.84,1143ZM316,1065.54,474.47,855.88,19,1030.46ZM757.56,1192,507,811,475.71,992.19ZM940.75,647.64l-391,76L809.07,874.34ZM1918,865.72,1714.26,703.43,1477,1002ZM1768.72,348.51,1786.48,125,1327.64,484.74Zm-459.93,742.86L1684.28,691,1251.62,852.62ZM791.42,1029.1l509.07,62.45-54.3-234.85Zm519.93-205,379.17-147.93L932.6,594.7ZM1746.7,677.4l16.5-272L948.89,587.91ZM751.25,1039.62l552-212.79L970.61,625.92Z"/></clipPath></defs><g id="Calque_2" data-name="Calque 2"><g id="Backup"><polygon class="cls-2" points="815.86 906.92 741.24 1013.32 699.11 923.22 815.86 906.92"/><polygon class="cls-2" points="1111.79 1105.12 983.29 1143.78 919.49 1084.05 1111.79 1105.12"/><polygon class="cls-2" points="1133.39 500.98 1399.59 366.64 1309.65 466.92 1133.39 500.98"/><g class="cls-3"><image width="1920" height="1440" xlink:href="assets/img/digital_nomad.jpg"/></g></g></g></svg>